<svg version="1.1" id="Layer_1" xmlns="http://www.w3.org/2000/svg" xmlns:xlink="http://www.w3.org/1999/xlink" x="0px" y="0px"
	 width="100%" viewBox="0 0 612 367" enable-background="new 0 0 612 367" xml:space="preserve">
<path fill="#000000" opacity="1.000000" stroke="none" 
	d="
M457.000000,368.000000 
	C304.666718,368.000000 152.833405,368.000000 1.000082,368.000000 
	C1.000054,245.666733 1.000054,123.333466 1.000027,1.000147 
	C204.999878,1.000098 408.999756,1.000098 612.999756,1.000049 
	C612.999817,123.333191 612.999817,245.666382 612.999878,367.999786 
	C561.166687,368.000000 509.333344,368.000000 457.000000,368.000000 
M361.017426,171.097198 
	C361.047485,165.054047 361.077545,159.010880 361.502808,153.036041 
	C361.502808,153.036041 361.903748,153.045563 362.860596,153.044388 
	C374.181885,153.044022 385.503479,153.086304 396.824066,152.997787 
	C398.543365,152.984329 400.257935,152.363754 401.989014,151.093674 
	C401.627380,146.722366 401.265747,142.351059 400.501740,137.228088 
	C381.988098,137.189774 363.474426,137.151474 344.158447,137.434479 
	C344.113159,164.820480 344.059113,192.206467 344.064789,219.592453 
	C344.064972,220.418991 344.690582,221.245392 345.022095,221.978592 
	C345.022095,221.978592 344.928894,221.974670 345.269226,222.801666 
	C363.728088,222.890518 382.186951,222.986893 400.645905,223.023682 
	C401.095093,223.024582 401.545624,222.362457 401.998474,221.080002 
	C401.634949,216.326614 401.271423,211.573242 400.409821,206.143936 
	C387.276550,206.062103 374.143311,205.980255 361.007202,204.975769 
	C361.028076,199.373642 361.048950,193.771500 361.991425,188.065155 
	C371.309662,188.050034 380.628601,188.087799 389.945557,187.971664 
	C391.648956,187.950439 393.344513,187.302567 395.147308,186.147110 
	C395.097412,181.763245 395.047516,177.379395 394.591888,172.227325 
	C383.381287,172.138611 372.170685,172.049896 360.965485,172.034683 
	C360.965485,172.034683 361.039032,172.039444 361.017426,171.097198 
M266.129547,137.434998 
	C266.080750,164.763611 266.023193,192.092209 266.025024,219.420822 
	C266.025085,220.248917 266.645050,221.076965 267.553833,222.514023 
	C272.416321,222.643478 277.278839,222.772934 282.821167,222.416443 
	C282.922729,211.285690 283.024323,200.154953 283.941467,189.022995 
	C289.739990,187.418610 293.420013,189.487320 296.036316,194.969986 
	C299.388855,201.995453 303.318604,208.755280 307.206146,215.510727 
	C308.724579,218.149292 310.485626,222.181702 312.690094,222.590225 
	C318.211090,223.613388 324.048676,222.928009 330.287903,222.928009 
	C329.693329,220.955154 329.578735,219.949554 329.117828,219.141510 
	C323.949280,210.080536 319.142944,200.770706 313.338135,192.133392 
	C310.586487,188.038986 312.469574,187.040314 315.300842,185.452408 
	C316.712982,184.660400 318.473907,184.133331 319.440338,182.961365 
	C325.965363,175.048615 329.741943,166.435654 327.052551,155.742645 
	C324.747711,146.578537 316.108276,138.521439 306.571564,137.245972 
	C293.361572,137.210846 280.151581,137.175735 266.129547,137.434998 
M414.997070,197.001785 
	C414.856934,204.488495 416.959656,211.591843 422.847382,216.011566 
	C431.291046,222.349930 440.631287,225.577621 451.926727,222.433960 
	C464.531036,218.926041 473.052704,211.156860 474.843475,198.431870 
	C475.026520,197.131027 474.363953,194.543808 473.915802,194.502899 
	C469.633728,194.111938 465.243622,193.669678 461.039337,194.290573 
	C459.439056,194.526917 457.925079,197.315659 456.916199,199.228287 
	C453.582062,205.549179 447.006805,208.221786 440.155121,206.264954 
	C433.787964,204.446472 432.075500,199.522247 431.026062,193.035416 
	C431.022461,184.348145 431.018860,175.660858 431.120941,166.226791 
	C431.399384,165.272736 431.730194,164.330429 431.947754,163.362686 
	C433.312164,157.294098 437.290985,154.085693 443.221466,152.990112 
	C448.709564,151.976257 453.087616,153.966766 455.150543,158.970627 
	C457.743500,165.260071 462.136353,166.995468 468.314026,166.008469 
	C468.962402,165.904877 469.651672,165.919418 470.304962,166.006561 
	C474.570221,166.575470 476.231232,164.258026 474.604675,160.795837 
	C472.045258,155.348236 469.343842,149.684402 465.435791,145.221344 
	C459.918365,138.920380 452.171112,137.595261 443.749969,136.667435 
	C429.000732,135.042404 413.608704,149.166916 414.295746,165.382401 
	C414.167267,174.774368 414.009857,184.166168 413.958710,193.558548 
	C413.954041,194.420609 414.628601,195.286362 414.997070,197.001785 
M69.954971,166.869049 
	C70.288246,168.105225 70.239647,169.713638 71.019920,170.514084 
	C74.690521,174.279495 79.043289,173.689774 83.679810,172.402527 
	C87.473755,171.349197 88.572220,168.803375 88.805428,165.456314 
	C88.978165,162.977142 88.938919,160.483200 89.006882,157.059509 
	C89.003799,132.040268 89.000710,107.021019 89.011078,81.487129 
	C89.010391,81.315529 89.009697,81.143929 89.943947,81.020676 
	C114.591301,80.995865 139.238647,80.971054 164.626373,80.900909 
	C170.925186,78.583359 173.674484,74.942505 172.957703,69.867813 
	C172.296783,65.188713 167.823959,61.233898 162.523254,60.203743 
	C134.473358,60.128212 106.423462,60.047779 78.373512,60.019917 
	C77.913544,60.019463 77.452927,60.660118 76.267433,61.038143 
	C72.923485,62.140747 69.676308,63.332912 69.355904,68.420761 
	C69.250114,69.069824 69.052101,69.718834 69.051773,70.367950 
	C69.036369,101.047997 69.026993,131.728073 69.078453,162.408051 
	C69.080513,163.637756 69.677765,164.866486 69.954971,166.869049 
M70.192657,206.174866 
	C69.804352,207.661819 69.080231,209.148117 69.077415,210.635803 
	C69.023087,239.388718 69.053162,268.141785 69.014404,297.725647 
	C69.086113,304.500397 71.147217,307.147675 77.328690,308.829041 
	C105.932610,308.887177 134.536530,308.951813 163.140472,308.961090 
	C163.771622,308.961304 164.402969,308.329651 165.784058,308.047180 
	C170.771286,306.258301 173.485764,302.581543 172.977478,298.303680 
	C172.304031,292.636108 169.592651,289.833679 163.570908,288.227417 
	C138.719101,288.166168 113.867302,288.104919 89.016983,287.261292 
	C89.019753,286.478882 89.022530,285.696503 89.849205,284.618927 
	C89.899323,275.564911 89.973984,266.510803 89.956635,257.456940 
	C89.955124,256.665070 89.349396,255.874420 89.021263,254.135468 
	C89.018021,238.972443 89.053444,223.809280 88.990700,208.646500 
	C88.968559,203.294556 84.635178,198.618057 79.960197,198.624023 
	C73.982178,198.631653 71.363815,200.790741 70.192657,206.174866 
M443.285126,289.068298 
	C437.655701,292.750916 435.762390,296.371185 437.090088,301.835663 
	C438.061096,305.832031 440.833466,307.949860 445.343719,308.832214 
	C475.443512,308.892426 505.543274,308.960510 535.643066,308.969604 
	C536.431152,308.969849 537.219299,308.326782 538.124146,307.399506 
	C542.095459,307.062469 544.283386,304.816315 545.046021,300.051819 
	C545.025879,269.709656 545.005737,239.367508 545.025940,208.384216 
	C545.036377,207.956100 545.046814,207.528000 544.885803,206.553162 
	C544.572571,206.357132 544.259277,206.161087 543.614258,205.662369 
	C542.031372,203.605209 540.870728,200.551697 538.789795,199.669800 
	C531.269714,196.482819 525.125061,201.090256 525.026428,209.644516 
	C524.901672,220.462936 524.978699,231.283707 524.144165,242.391251 
	C524.096863,254.602798 524.035156,266.814331 524.043884,279.025879 
	C524.044312,279.653931 524.649414,280.281555 524.976929,281.804291 
	C524.976929,283.891754 524.976990,285.979187 524.045288,287.995239 
	C498.841614,287.993103 473.637878,287.973785 448.434326,288.032104 
	C446.949951,288.035553 445.467010,288.664825 443.285126,289.068298 
M524.143921,90.391632 
	C524.096680,107.597687 524.039185,124.803741 524.043152,142.009781 
	C524.043274,142.638565 524.646362,143.267212 524.986694,144.846008 
	C524.977966,150.840591 525.003967,156.835510 524.948242,162.829666 
	C524.911255,166.811295 526.939636,169.326630 530.363037,170.996689 
	C537.053833,174.260651 546.594177,169.647263 544.992126,160.027969 
	C544.989563,129.694016 544.987000,99.360054 544.921021,68.307289 
	C543.970398,63.993790 540.715820,62.195072 536.586487,60.181236 
	C506.373718,60.119759 476.160919,60.052063 445.948120,60.038708 
	C445.303833,60.038425 444.659302,60.663368 443.307465,61.038094 
	C438.071686,63.524101 436.240021,67.840996 437.070374,73.311104 
	C437.644867,77.095718 439.904663,79.523590 444.317780,80.770912 
	C469.081390,80.858376 493.845123,80.927742 518.608459,81.065643 
	C520.722900,81.077415 522.834900,81.545265 524.976990,82.724709 
	C524.974182,85.184517 524.971313,87.644333 524.143921,90.391632 
M135.007050,146.433426 
	C132.960022,149.183899 130.658051,151.782227 128.909912,154.711105 
	C121.165482,167.686417 118.541313,181.445770 121.725883,196.490921 
	C124.445435,209.339081 131.018982,219.491302 140.598312,228.076614 
	C149.952393,236.460037 161.101624,241.096481 173.372589,241.809753 
	C192.605865,242.927750 208.781143,236.063354 221.414444,221.080856 
	C233.595871,206.634277 237.897125,190.185287 233.341309,172.055862 
	C228.988800,154.735565 218.936935,141.450317 202.284637,133.621918 
	C185.536530,125.748466 168.751114,125.335602 152.286469,133.608093 
	C146.178421,136.677032 141.086075,141.767502 135.007050,146.433426 
z"/>
<path fill="#E74D3E" opacity="1.000000" stroke="none" 
	d="
M135.268784,146.184753 
	C141.086075,141.767502 146.178421,136.677032 152.286469,133.608093 
	C168.751114,125.335602 185.536530,125.748466 202.284637,133.621918 
	C218.936935,141.450317 228.988800,154.735565 233.341309,172.055862 
	C237.897125,190.185287 233.595871,206.634277 221.414444,221.080856 
	C208.781143,236.063354 192.605865,242.927750 173.372589,241.809753 
	C161.101624,241.096481 149.952393,236.460037 140.598312,228.076614 
	C131.018982,219.491302 124.445435,209.339081 121.725883,196.490921 
	C118.541313,181.445770 121.165482,167.686417 128.909912,154.711105 
	C130.658051,151.782227 132.960022,149.183899 135.268784,146.184753 
z"/>
<path fill="#171717" opacity="1.000000" stroke="none" 
	d="
M536.925049,60.981602 
	C540.715820,62.195072 543.970398,63.993790 544.658447,68.958740 
	C544.267029,70.422005 544.026001,71.233742 544.025391,72.045662 
	C544.003235,100.449524 543.991577,128.853409 544.042236,157.257202 
	C544.044434,158.490814 544.649353,159.723343 544.973511,160.956375 
	C546.594177,169.647263 537.053833,174.260651 530.363037,170.996689 
	C526.939636,169.326630 524.911255,166.811295 524.948242,162.829666 
	C525.003967,156.835510 524.977966,150.840591 524.992188,143.909119 
	C524.987915,125.349525 524.978210,107.726830 524.968506,90.104141 
	C524.971313,87.644333 524.974182,85.184517 524.874390,81.873718 
	C523.419739,80.675926 522.068420,80.029755 520.715576,80.026634 
	C495.111908,79.967491 469.508026,79.984314 443.904205,79.985313 
	C439.904663,79.523590 437.644867,77.095718 437.070374,73.311104 
	C436.240021,67.840996 438.071686,63.524101 444.128662,61.030350 
	C475.608276,61.008934 506.266663,60.995270 536.925049,60.981602 
z"/>
<path fill="#161616" opacity="1.000000" stroke="none" 
	d="
M545.057251,207.099884 
	C545.046814,207.528000 545.036377,207.956100 544.721924,209.005707 
	C544.280457,210.437042 544.023254,211.246796 544.022644,212.056747 
	C544.000732,240.482376 543.990784,268.908051 544.043701,297.333557 
	C544.045959,298.551331 544.661133,299.768005 544.990723,300.985199 
	C544.283386,304.816315 542.095459,307.062469 537.598145,307.648621 
	C506.393372,307.934723 475.714539,307.971649 445.035706,308.008606 
	C440.833466,307.949860 438.061096,305.832031 437.090088,301.835663 
	C435.762390,296.371185 437.655701,292.750916 444.103546,289.062744 
	C469.906860,289.037231 494.891815,289.035339 519.876526,288.957489 
	C521.577637,288.952179 523.276855,288.376831 524.976990,288.066650 
	C524.976990,285.979187 524.976929,283.891754 524.987732,280.894104 
	C524.988586,267.357086 524.978638,254.730270 524.968689,242.103455 
	C524.978699,231.283707 524.901672,220.462936 525.026428,209.644516 
	C525.125061,201.090256 531.269714,196.482819 538.789795,199.669800 
	C540.870728,200.551697 542.031372,203.605209 543.892212,206.066605 
	C544.465881,206.680527 544.761597,206.890213 545.057251,207.099884 
z"/>
<path fill="#171717" opacity="1.000000" stroke="none" 
	d="
M89.025307,284.914093 
	C89.022530,285.696503 89.019753,286.478882 89.272903,287.989502 
	C91.184044,288.815735 92.839218,288.998108 94.494484,288.999023 
	C117.653191,289.011963 140.811905,289.000183 163.970612,288.994385 
	C169.592651,289.833679 172.304031,292.636108 172.977478,298.303680 
	C173.485764,302.581543 170.771286,306.258301 164.938538,308.000305 
	C135.067581,307.970215 106.042137,307.987030 77.016685,308.003845 
	C71.147217,307.147675 69.086113,304.500397 69.310593,297.012268 
	C69.731743,294.484283 69.963860,292.669739 69.965538,290.855042 
	C69.989311,265.194366 69.952469,239.533585 70.026344,213.873123 
	C70.033890,211.252243 70.660095,208.633148 70.999222,206.013214 
	C71.363815,200.790741 73.982178,198.631653 79.960197,198.624023 
	C84.635178,198.618057 88.968559,203.294556 88.990700,208.646500 
	C89.053444,223.809280 89.018021,238.972443 89.003540,255.072357 
	C88.998978,265.644196 89.012146,275.279144 89.025307,284.914093 
z"/>
<path fill="#171717" opacity="1.000000" stroke="none" 
	d="
M88.994110,157.995834 
	C88.938919,160.483200 88.978165,162.977142 88.805428,165.456314 
	C88.572220,168.803375 87.473755,171.349197 83.679810,172.402527 
	C79.043289,173.689774 74.690521,174.279495 71.019920,170.514084 
	C70.239647,169.713638 70.288246,168.105225 69.976967,166.003418 
	C69.995865,132.698746 69.992775,100.259697 69.989677,67.820656 
	C69.676308,63.332912 72.923485,62.140747 77.098679,61.044815 
	C106.253242,61.025936 134.576553,61.000381 162.899872,60.974827 
	C167.823959,61.233898 172.296783,65.188713 172.957703,69.867813 
	C173.674484,74.942505 170.925186,78.583359 164.028854,80.571152 
	C139.152390,80.165596 114.873459,80.083702 90.594467,80.054207 
	C90.066353,80.053558 89.537498,80.652878 89.008995,80.972321 
	C89.009697,81.143929 89.010391,81.315529 88.725342,82.053169 
	C88.293953,83.426033 88.021873,84.232719 88.021042,85.039688 
	C87.997292,108.124420 87.985474,131.209213 88.042206,154.293839 
	C88.045242,155.528610 88.662682,156.761871 88.994110,157.995834 
z"/>
<path fill="#171717" opacity="1.000000" stroke="none" 
	d="
M282.141327,222.902405 
	C277.278839,222.772934 272.416321,222.643478 267.277893,221.747284 
	C267.041840,193.367111 267.081696,165.753708 267.577881,138.073151 
	C281.021698,138.003830 294.009216,138.001648 306.996735,137.999451 
	C316.108276,138.521439 324.747711,146.578537 327.052551,155.742645 
	C329.741943,166.435654 325.965363,175.048615 319.440338,182.961365 
	C318.473907,184.133331 316.712982,184.660400 315.300842,185.452408 
	C312.469574,187.040314 310.586487,188.038986 313.338135,192.133392 
	C319.142944,200.770706 323.949280,210.080536 329.117828,219.141510 
	C329.578735,219.949554 329.693329,220.955154 330.287903,222.928009 
	C324.048676,222.928009 318.211090,223.613388 312.690094,222.590225 
	C310.485626,222.181702 308.724579,218.149292 307.206146,215.510727 
	C303.318604,208.755280 299.388855,201.995453 296.036316,194.969986 
	C293.420013,189.487320 289.739990,187.418610 283.257202,188.860992 
	C282.429077,200.100113 282.285217,211.501266 282.141327,222.902405 
M310.863281,160.184677 
	C308.518311,157.808289 306.412628,153.757919 303.781738,153.381866 
	C296.973175,152.408661 289.933014,153.055496 283.004059,153.055496 
	C283.004059,158.857605 283.071136,164.158798 282.974945,169.457031 
	C282.928864,171.994598 283.891052,173.085999 286.487701,173.017303 
	C290.647491,172.907242 294.812714,173.018188 298.975464,173.001511 
	C307.744446,172.966370 311.001007,169.693878 310.863281,160.184677 
z"/>
<path fill="#161616" opacity="1.000000" stroke="none" 
	d="
M361.069824,188.169373 
	C361.048950,193.771500 361.028076,199.373642 360.731445,205.671768 
	C373.939758,206.518463 387.423859,206.669159 400.907898,206.819855 
	C401.271423,211.573242 401.634949,216.326614 401.531219,221.491791 
	C382.352264,221.927277 363.640594,221.950974 344.928894,221.974670 
	C344.928894,221.974670 345.022095,221.978592 345.016541,221.551880 
	C345.041626,193.462814 345.072296,165.800476 345.562256,138.087067 
	C364.315735,138.017227 382.609924,137.998489 400.904114,137.979752 
	C401.265747,142.351059 401.627380,146.722366 401.516052,151.540878 
	C389.720306,151.983231 378.397186,151.933258 367.075165,152.021469 
	C365.348785,152.034927 363.627441,152.688217 361.903748,153.045563 
	C361.903748,153.045563 361.502808,153.036041 360.924622,153.218018 
	C360.577332,159.613129 360.808167,165.826294 361.039032,172.039444 
	C361.039032,172.039444 360.965485,172.034683 361.204590,172.353271 
	C372.628326,172.779739 383.812958,172.887634 394.997620,172.995529 
	C395.047516,177.379395 395.097412,181.763245 394.622314,186.546387 
	C384.207153,186.958740 374.316528,186.934204 364.427277,187.036758 
	C363.304321,187.048401 362.188782,187.774536 361.069824,188.169373 
z"/>
<path fill="#181818" opacity="1.000000" stroke="none" 
	d="
M414.985077,164.831345 
	C413.608704,149.166916 429.000732,135.042404 443.749969,136.667435 
	C452.171112,137.595261 459.918365,138.920380 465.435791,145.221344 
	C469.343842,149.684402 472.045258,155.348236 474.604675,160.795837 
	C476.231232,164.258026 474.570221,166.575470 470.304962,166.006561 
	C469.651672,165.919418 468.962402,165.904877 468.314026,166.008469 
	C462.136353,166.995468 457.743500,165.260071 455.150543,158.970627 
	C453.087616,153.966766 448.709564,151.976257 443.221466,152.990112 
	C437.290985,154.085693 433.312164,157.294098 431.947754,163.362686 
	C431.730194,164.330429 431.399384,165.272736 430.771851,166.900330 
	C430.271790,173.002563 429.968719,178.432877 430.025543,183.859421 
	C430.060822,187.230804 430.641296,190.596497 430.977081,193.964737 
	C432.075500,199.522247 433.787964,204.446472 440.155121,206.264954 
	C447.006805,208.221786 453.582062,205.549179 456.916199,199.228287 
	C457.925079,197.315659 459.439056,194.526917 461.039337,194.290573 
	C465.243622,193.669678 469.633728,194.111938 473.915802,194.502899 
	C474.363953,194.543808 475.026520,197.131027 474.843475,198.431870 
	C473.052704,211.156860 464.531036,218.926041 451.926727,222.433960 
	C440.631287,225.577621 431.291046,222.349930 422.847382,216.011566 
	C416.959656,211.591843 414.856934,204.488495 415.022125,196.093353 
	C415.026489,185.067078 415.005768,174.949203 414.985077,164.831345 
z"/>
<path fill="#2F2F2F" opacity="1.000000" stroke="none" 
	d="
M69.672791,68.120712 
	C69.992775,100.259697 69.995865,132.698746 69.998337,165.616730 
	C69.677765,164.866486 69.080513,163.637756 69.078453,162.408051 
	C69.026993,131.728073 69.036369,101.047997 69.051773,70.367950 
	C69.052101,69.718834 69.250114,69.069824 69.672791,68.120712 
z"/>
<path fill="#2F2F2F" opacity="1.000000" stroke="none" 
	d="
M70.595940,206.094040 
	C70.660095,208.633148 70.033890,211.252243 70.026344,213.873123 
	C69.952469,239.533585 69.989311,265.194366 69.965538,290.855042 
	C69.963860,292.669739 69.731743,294.484283 69.336319,296.596863 
	C69.053162,268.141785 69.023087,239.388718 69.077415,210.635803 
	C69.080231,209.148117 69.804352,207.661819 70.595940,206.094040 
z"/>
<path fill="#A9A9A9" opacity="1.000000" stroke="none" 
	d="
M445.189697,308.420410 
	C475.714539,307.971649 506.393372,307.934723 537.539795,307.940735 
	C537.219299,308.326782 536.431152,308.969849 535.643066,308.969604 
	C505.543274,308.960510 475.443512,308.892426 445.189697,308.420410 
z"/>
<path fill="#9F9F9F" opacity="1.000000" stroke="none" 
	d="
M536.755737,60.581421 
	C506.266663,60.995270 475.608276,61.008934 444.482361,61.009621 
	C444.659302,60.663368 445.303833,60.038425 445.948120,60.038708 
	C476.160919,60.052063 506.373718,60.119759 536.755737,60.581421 
z"/>
<path fill="#2F2F2F" opacity="1.000000" stroke="none" 
	d="
M545.018372,300.518494 
	C544.661133,299.768005 544.045959,298.551331 544.043701,297.333557 
	C543.990784,268.908051 544.000732,240.482376 544.022644,212.056747 
	C544.023254,211.246796 544.280457,210.437042 544.701782,209.326279 
	C545.005737,239.367508 545.025879,269.709656 545.018372,300.518494 
z"/>
<path fill="#2F2F2F" opacity="1.000000" stroke="none" 
	d="
M544.982788,160.492172 
	C544.649353,159.723343 544.044434,158.490814 544.042236,157.257202 
	C543.991577,128.853409 544.003235,100.449524 544.025391,72.045662 
	C544.026001,71.233742 544.267029,70.422005 544.690186,69.318138 
	C544.987000,99.360054 544.989563,129.694016 544.982788,160.492172 
z"/>
<path fill="#A9A9A9" opacity="1.000000" stroke="none" 
	d="
M77.172684,308.416443 
	C106.042137,307.987030 135.067581,307.970215 164.563629,307.973083 
	C164.402969,308.329651 163.771622,308.961304 163.140472,308.961090 
	C134.536530,308.951813 105.932610,308.887177 77.172684,308.416443 
z"/>
<path fill="#9F9F9F" opacity="1.000000" stroke="none" 
	d="
M162.711563,60.589287 
	C134.576553,61.000381 106.253242,61.025936 77.461273,61.026543 
	C77.452927,60.660118 77.913544,60.019463 78.373512,60.019917 
	C106.423462,60.047779 134.473358,60.128212 162.711563,60.589287 
z"/>
<path fill="#9F9F9F" opacity="1.000000" stroke="none" 
	d="
M345.102936,138.138138 
	C345.072296,165.800476 345.041626,193.462814 345.017792,221.598511 
	C344.690582,221.245392 344.064972,220.418991 344.064789,219.592453 
	C344.059113,192.206467 344.113159,164.820480 344.595398,137.530029 
	C345.055847,137.796417 345.079376,137.967285 345.102936,138.138138 
z"/>
<path fill="#A9A9A9" opacity="1.000000" stroke="none" 
	d="
M267.121582,138.140289 
	C267.081696,165.753708 267.041840,193.367111 266.989014,221.442780 
	C266.645050,221.076965 266.025085,220.248917 266.025024,219.420822 
	C266.023193,192.092209 266.080750,164.763611 266.567169,137.540131 
	C267.043732,137.810272 267.082672,137.975281 267.121582,138.140289 
z"/>
<path fill="#767676" opacity="1.000000" stroke="none" 
	d="
M444.110992,80.378113 
	C469.508026,79.984314 495.111908,79.967491 520.715576,80.026634 
	C522.068420,80.029755 523.419739,80.675926 524.859863,81.411987 
	C522.834900,81.545265 520.722900,81.077415 518.608459,81.065643 
	C493.845123,80.927742 469.081390,80.858376 444.110992,80.378113 
z"/>
<path fill="#767676" opacity="1.000000" stroke="none" 
	d="
M524.511108,288.030945 
	C523.276855,288.376831 521.577637,288.952179 519.876526,288.957489 
	C494.891815,289.035339 469.906860,289.037231 444.452698,289.030029 
	C445.467010,288.664825 446.949951,288.035553 448.434326,288.032104 
	C473.637878,287.973785 498.841614,287.993103 524.511108,288.030945 
z"/>
<path fill="#181818" opacity="1.000000" stroke="none" 
	d="
M89.000496,157.527679 
	C88.662682,156.761871 88.045242,155.528610 88.042206,154.293839 
	C87.985474,131.209213 87.997292,108.124420 88.021042,85.039688 
	C88.021873,84.232719 88.293953,83.426033 88.718613,82.310493 
	C89.000710,107.021019 89.003799,132.040268 89.000496,157.527679 
z"/>
<path fill="#767676" opacity="1.000000" stroke="none" 
	d="
M89.476471,80.996498 
	C89.537498,80.652878 90.066353,80.053558 90.594467,80.054207 
	C114.873459,80.083702 139.152390,80.165596 163.658661,80.593819 
	C139.238647,80.971054 114.591301,80.995865 89.476471,80.996498 
z"/>
<path fill="#767676" opacity="1.000000" stroke="none" 
	d="
M163.770752,288.610901 
	C140.811905,289.000183 117.653191,289.011963 94.494484,288.999023 
	C92.839218,288.998108 91.184044,288.815735 89.272163,288.380707 
	C113.867302,288.104919 138.719101,288.166168 163.770752,288.610901 
z"/>
<path fill="#A9A9A9" opacity="1.000000" stroke="none" 
	d="
M345.099060,222.388168 
	C363.640594,221.950974 382.352264,221.927277 401.529724,221.956573 
	C401.545624,222.362457 401.095093,223.024582 400.645905,223.023682 
	C382.186951,222.986893 363.728088,222.890518 345.099060,222.388168 
z"/>
<path fill="#767676" opacity="1.000000" stroke="none" 
	d="
M345.562256,138.087067 
	C345.079376,137.967285 345.055847,137.796417 344.996582,137.369370 
	C363.474426,137.151474 381.988098,137.189774 400.702942,137.603912 
	C382.609924,137.998489 364.315735,138.017227 345.562256,138.087067 
z"/>
<path fill="#FFFFFF" opacity="1.000000" stroke="none" 
	d="
M524.556213,90.247887 
	C524.978210,107.726830 524.987915,125.349525 524.983032,143.434067 
	C524.646362,143.267212 524.043274,142.638565 524.043152,142.009781 
	C524.039185,124.803741 524.096680,107.597687 524.556213,90.247887 
z"/>
<path fill="#FFFFFF" opacity="1.000000" stroke="none" 
	d="
M400.658875,206.481903 
	C387.423859,206.669159 373.939758,206.518463 360.732849,206.133087 
	C374.143311,205.980255 387.276550,206.062103 400.658875,206.481903 
z"/>
<path fill="#767676" opacity="1.000000" stroke="none" 
	d="
M267.577881,138.073151 
	C267.082672,137.975281 267.043732,137.810272 266.973206,137.392944 
	C280.151581,137.175735 293.361572,137.210846 306.784149,137.622711 
	C294.009216,138.001648 281.021698,138.003830 267.577881,138.073151 
z"/>
<path fill="#2F2F2F" opacity="1.000000" stroke="none" 
	d="
M362.382172,153.044983 
	C363.627441,152.688217 365.348785,152.034927 367.075165,152.021469 
	C378.397186,151.933258 389.720306,151.983231 401.508850,152.006042 
	C400.257935,152.363754 398.543365,152.984329 396.824066,152.997787 
	C385.503479,153.086304 374.181885,153.044022 362.382172,153.044983 
z"/>
<path fill="#FFFFFF" opacity="1.000000" stroke="none" 
	d="
M524.556396,242.247345 
	C524.978638,254.730270 524.988586,267.357086 524.985718,280.446655 
	C524.649414,280.281555 524.044312,279.653931 524.043884,279.025879 
	C524.035156,266.814331 524.096863,254.602798 524.556396,242.247345 
z"/>
<path fill="#767676" opacity="1.000000" stroke="none" 
	d="
M282.481262,222.659424 
	C282.285217,211.501266 282.429077,200.100113 282.849426,188.861588 
	C283.024323,200.154953 282.922729,211.285690 282.481262,222.659424 
z"/>
<path fill="#2F2F2F" opacity="1.000000" stroke="none" 
	d="
M361.530640,188.117249 
	C362.188782,187.774536 363.304321,187.048401 364.427277,187.036758 
	C374.316528,186.934204 384.207153,186.958740 394.570526,186.944809 
	C393.344513,187.302567 391.648956,187.950439 389.945557,187.971664 
	C380.628601,188.087799 371.309662,188.050034 361.530640,188.117249 
z"/>
<path fill="#767676" opacity="1.000000" stroke="none" 
	d="
M394.794739,172.611420 
	C383.812958,172.887634 372.628326,172.779739 361.201874,172.316498 
	C372.170685,172.049896 383.381287,172.138611 394.794739,172.611420 
z"/>
<path fill="#2F2F2F" opacity="1.000000" stroke="none" 
	d="
M414.640411,165.106873 
	C415.005768,174.949203 415.026489,185.067078 415.017456,195.667664 
	C414.628601,195.286362 413.954041,194.420609 413.958710,193.558548 
	C414.009857,184.166168 414.167267,174.774368 414.640411,165.106873 
z"/>
<path fill="#FFFFFF" opacity="1.000000" stroke="none" 
	d="
M89.437256,284.766510 
	C89.012146,275.279144 88.998978,265.644196 89.005066,255.546234 
	C89.349396,255.874420 89.955124,256.665070 89.956635,257.456940 
	C89.973984,266.510803 89.899323,275.564911 89.437256,284.766510 
z"/>
<path fill="#2F2F2F" opacity="1.000000" stroke="none" 
	d="
M431.001587,193.500076 
	C430.641296,190.596497 430.060822,187.230804 430.025543,183.859421 
	C429.968719,178.432877 430.271790,173.002563 430.718994,167.273712 
	C431.018860,175.660858 431.022461,184.348145 431.001587,193.500076 
z"/>
<path fill="#767676" opacity="1.000000" stroke="none" 
	d="
M361.028229,171.568329 
	C360.808167,165.826294 360.577332,159.613129 360.727051,153.183853 
	C361.077545,159.010880 361.047485,165.054047 361.028229,171.568329 
z"/>
<path fill="#2F2F2F" opacity="1.000000" stroke="none" 
	d="
M544.971558,206.826538 
	C544.761597,206.890213 544.465881,206.680527 544.058105,206.217941 
	C544.259277,206.161087 544.572571,206.357132 544.971558,206.826538 
z"/>
<path fill="#000000" opacity="1.000000" stroke="none" 
	d="
M310.916870,160.585068 
	C311.001007,169.693878 307.744446,172.966370 298.975464,173.001511 
	C294.812714,173.018188 290.647491,172.907242 286.487701,173.017303 
	C283.891052,173.085999 282.928864,171.994598 282.974945,169.457031 
	C283.071136,164.158798 283.004059,158.857605 283.004059,153.055496 
	C289.933014,153.055496 296.973175,152.408661 303.781738,153.381866 
	C306.412628,153.757919 308.518311,157.808289 310.916870,160.585068 
z"/>
</svg>